<?xml version="1.0" standalone="no"?>
<!DOCTYPE svg PUBLIC "-//W3C//DTD SVG 20010904//EN"
 "http://www.w3.org/TR/2001/REC-SVG-20010904/DTD/svg10.dtd">
<svg version="1.0" xmlns="http://www.w3.org/2000/svg"
 width="512.000000pt" height="512.000000pt" viewBox="0 0 512.000000 512.000000"
 preserveAspectRatio="xMidYMid meet">

<g transform="translate(0.000000,512.000000) scale(0.100000,-0.100000)"
fill="#000000" stroke="none">
<path d="M0 2560 l0 -2560 2560 0 2560 0 0 2560 0 2560 -2560 0 -2560 0 0
-2560z m2790 1475 c312 -47 586 -189 820 -424 175 -175 276 -333 360 -561 72
-195 99 -484 66 -706 -76 -517 -415 -955 -894 -1158 -212 -89 -407 -123 -652
-113 -180 8 -309 34 -460 93 -212 84 -355 178 -521 343 -165 166 -259 309
-343 521 -74 188 -90 287 -90 535 0 192 2 220 27 323 68 292 208 534 430 748
219 211 499 353 787 399 115 18 353 18 470 0z"/>
<path d="M2460 3749 c-507 -34 -966 -440 -1069 -946 -39 -187 -25 -442 31
-608 30 -87 113 -250 166 -325 59 -83 199 -223 282 -282 86 -61 245 -140 345
-171 123 -38 226 -50 398 -44 187 6 304 33 452 107 88 43 214 126 215 140 0 3
-46 51 -102 107 l-103 102 -50 -31 c-66 -41 -170 -85 -264 -110 -107 -30 -312
-29 -426 1 -108 28 -266 108 -347 175 -139 116 -253 294 -299 471 -26 97 -31
315 -10 410 35 156 114 304 228 425 126 134 260 216 431 262 111 30 325 30
437 0 434 -116 733 -548 676 -977 -17 -125 -66 -259 -135 -371 l-25 -40 108
-108 109 -108 39 58 c90 132 163 308 188 451 22 128 20 342 -6 466 -75 372
-356 708 -717 861 -172 72 -344 99 -552 85z"/>
<path d="M2401 3135 c-159 -45 -306 -167 -378 -315 -23 -47 -47 -113 -54 -148
-16 -83 -6 -230 20 -305 117 -334 502 -502 804 -351 28 15 54 28 56 31 3 2
-44 53 -103 112 l-109 109 -57 -5 c-124 -12 -239 59 -295 179 -83 179 46 397
245 415 117 11 238 -54 295 -157 26 -48 30 -65 31 -138 l1 -83 104 -105 c57
-57 107 -104 111 -104 12 0 55 102 68 161 17 74 8 249 -14 314 -26 71 -82 161
-140 223 -56 59 -165 131 -241 158 -69 24 -270 29 -344 9z"/>
</g>
</svg>
